<svg xmlns="http://www.w3.org/2000/svg" viewBox="0 0 50000 50000" class="svg">
    <path d="M13261 18621c-523,0 -947,-425 -947,-950 0,-524 424,-950 947,-950l0 1900zm23478 0l-23478 0 0 -1900 23478 0 0 1900zm0 -1900c523,0 947,426 947,950 0,525 -424,950 -947,950l0 -1900z"/>
    <path d="M13482 14606c-305,0 -553,-426 -553,-950 0,-525 248,-950 553,-950l0 1900zm3453 0l-3453 0 0 -1900 3453 0 0 1900zm0 -1900c306,0 554,425 554,950 0,524 -248,950 -554,950l0 -1900z"/>
    <path d="M13830 10776c-523,0 -948,-426 -948,-950 0,-525 425,-950 948,-950l0 1900zm5907 0l-5907 0 0 -1900 5907 0 0 1900zm0 -1900c523,0 947,425 947,950 0,524 -424,950 -947,950l0 -1900z"/>
    <path d="M27540 36696l0 -1358 1894 0 0 1358 -947 950 -947 -950zm1894 0c0,525 -424,950 -947,950 -523,0 -947,-425 -947,-950l1894 0zm-7777 -950l6830 0 0 1900 -6830 0 -948 -950 948 -950zm0 1900c-523,0 -948,-425 -948,-950 0,-525 425,-950 948,-950l0 1900zm947 -2297l0 1347 -1895 0 0 -1347 1016 -947 879 947zm-1895 0c0,-524 425,-950 948,-950 523,0 947,426 947,950l-1895 0zm-8395 -7701l1895 0 0 0 9 321 27 317 45 313 63 308 79 304 96 300 113 295 128 289 145 284 160 278 175 272 189 265 205 259 218 251 233 242 245 235 259 225 271 216 284 206 294 196 307 185 316 174 328 161 336 150 347 137 355 124 363 111 371 97 379 82 385 67 393 53 398 37 -136 1895 -474 -44 -469 -63 -461 -80 -454 -99 -445 -116 -437 -133 -428 -150 -419 -166 -408 -181 -398 -197 -386 -212 -375 -226 -362 -241 -350 -254 -336 -268 -322 -281 -308 -293 -293 -306 -277 -318 -261 -330 -244 -341 -226 -351 -208 -362 -189 -372 -169 -381 -149 -390 -128 -399 -106 -406 -84 -414 -60 -419 -37 -426 -12 -430 0 0zm1895 -21451l0 21451 -1895 0 0 -21451 947 -950 948 950zm-1895 0c0,-525 424,-950 947,-950 524,0 948,425 948,950l-1895 0zm9307 950l-8360 0 0 -1900 8360 0 947 950 -947 950zm0 -1900c523,0 947,425 947,950 0,524 -424,950 -947,950l0 -1900zm947 -1158l0 2108 -1895 0 0 -2108 948 -950 947 950zm-1895 0c0,-525 424,-950 948,-950 523,0 947,425 947,950l-1895 0zm7742 949l-6794 0 0 -1899 6794 0 947 950 -947 949zm0 -1899c523,0 947,425 947,950 0,524 -424,949 -947,949l0 -1899zm-947 3058l0 -2108 1894 0 0 2108 -947 950 -947 -950zm1894 0c0,524 -424,950 -947,950 -523,0 -947,-426 -947,-950l1894 0zm7377 950l-8324 0 0 -1900 8324 0 947 950 -947 950zm0 -1900c523,0 947,425 947,950 0,524 -424,950 -947,950l0 -1900zm-948 22401l0 -21451 1895 0 0 21451 0 0 -1895 0zm-6357 7690l-1894 0 867 -946 392 -42 386 -56 379 -72 373 -85 365 -100 358 -113 349 -126 340 -139 331 -151 322 -163 311 -175 301 -185 290 -196 278 -206 266 -215 254 -225 241 -233 228 -242 214 -249 201 -257 186 -263 172 -270 156 -276 142 -281 126 -287 110 -292 94 -297 78 -301 61 -306 44 -309 27 -314 9 -318 1895 0 -12 426 -36 421 -59 416 -82 409 -104 402 -125 395 -147 387 -166 378 -185 369 -204 359 -222 349 -239 339 -256 328 -272 316 -288 304 -302 293 -317 280 -330 268 -344 254 -356 241 -368 227 -380 213 -391 198 -402 184 -412 168 -421 152 -430 136 -439 120 -447 102 -454 86 -461 67 -468 50 867 -947zm-867 947c-521,44 -980,-343 -1024,-866 -44,-523 342,-983 864,-1027l160 1893z"/>
    <path d="M24745 37308c-401,-284 -453,-789 -116,-1127 338,-338 937,-382 1339,-98l-1223 1225zm93 3343l-1555 -920 0 0 113 -133 114 -130 114 -127 114 -125 113 -122 110 -119 109 -117 105 -114 101 -111 96 -108 91 -105 85 -101 79 -97 71 -93 63 -89 54 -83 46 -77 37 -70 28 -62 20 -55 12 -45 7 -36 2 -29 -1 -22 -3 -17 -6 -17 -8 -19 -15 -25 -25 -32 -37 -39 -54 -48 -73 -56 1223 -1225 177 136 162 144 145 154 126 165 106 173 82 181 57 185 34 186 10 183 -11 179 -30 172 -45 166 -57 158 -68 152 -76 145 -84 141 -90 137 -94 133 -99 130 -102 127 -106 125 -107 124 -109 122 -110 121 -111 119 -109 119 -110 118 -108 117 -105 115 -103 115 -100 114 -95 112 0 0zm-592 1929l-1744 635 0 0 -53 -109 -45 -111 -40 -113 -32 -113 -27 -113 -20 -114 -15 -114 -9 -114 -4 -114 2 -114 6 -113 11 -113 16 -113 20 -112 24 -112 28 -111 32 -111 36 -109 40 -110 43 -109 47 -108 50 -107 54 -107 56 -106 60 -105 63 -104 66 -104 69 -102 71 -101 75 -101 77 -99 80 -98 1555 920 -57 70 -56 71 -52 71 -50 71 -49 72 -45 71 -43 71 -41 72 -38 71 -35 70 -33 71 -30 69 -27 69 -25 68 -22 67 -19 65 -16 64 -14 63 -11 62 -8 59 -6 59 -3 56 -1 54 2 52 4 50 6 48 8 45 10 44 12 41 14 40 16 37 17 36 0 0zm3971 2138l-670 1498 -2 -1 -167 -53 -169 -53 -170 -52 -172 -53 -172 -53 -173 -54 -174 -55 -175 -56 -175 -57 -174 -60 -175 -62 -175 -64 -174 -67 -174 -70 -173 -74 -171 -78 -171 -82 -168 -87 -167 -91 -164 -98 -162 -103 -158 -109 -155 -115 -150 -123 -145 -129 -141 -136 -134 -143 -128 -151 -120 -157 -114 -164 -106 -172 -97 -179 1744 -635 60 111 64 104 69 99 71 94 76 88 79 85 83 81 88 78 92 74 97 72 101 70 106 68 110 65 116 64 120 62 125 60 130 59 134 57 139 56 143 55 146 54 152 53 154 53 158 52 161 52 164 51 166 52 170 52 172 53 174 54 175 55 178 56 -2 -1zm2 1c490,156 737,618 551,1031 -186,414 -734,622 -1225,465l674 -1496zm1488 423l-516 1540 -39 -10 -39 -10 -42 -11 -44 -11 -48 -13 -52 -14 -52 -15 -55 -15 -60 -16 -59 -17 -61 -17 -62 -18 -65 -18 -64 -18 -64 -18 -65 -19 -65 -19 -63 -18 -62 -18 -62 -18 -60 -17 -56 -16 -56 -17 -53 -15 -49 -14 -46 -14 -43 -13 -38 -11 -37 -11 -30 -9 -26 -8 -27 -8 670 -1498 7 2 20 6 26 8 29 9 36 11 40 11 44 13 49 15 49 14 54 16 57 16 58 17 59 17 61 18 63 18 62 18 63 18 64 18 62 18 61 17 61 17 60 17 57 16 54 15 52 14 50 14 44 12 41 11 37 10 31 8 23 6 16 4zm0 0c505,120 798,562 656,987 -142,425 -667,673 -1172,553l516 -1540z"/>
</svg>
