<svg xmlns="http://www.w3.org/2000/svg" viewBox="0 0 330 402" class="download"><path fill="none" stroke-width="9.5" stroke-linecap="round" stroke-linejoin="round" class="fil0 str0" d="M36 5l136 0 105 102 0 115c-14,-8 -30,-12 -46,-12 -52,0 -94,42 -94,94 0,23 8,45 23,61l-124 0c-17,0 -31,-14 -31,-31l0 -298c0,-17 14,-31 31,-31zm136 0c0,21 0,43 0,65 0,21 8,36 36,36 23,0 41,0 64,0m-234 85l193 0m-193 49l120 0m-120 45l100 0m93 -75c52,0 94,42 94,94 0,51 -42,93 -94,93 -52,0 -94,-42 -94,-93 0,-52 42,-94 94,-94zm0 36l0 107 33 -36m-33 36l-32 -35"/></svg>