<svg xmlns="http://www.w3.org/2000/svg" viewBox="0 0 638 880" class="svg"><path fill="none" stroke-width="24" stroke-linecap="round" stroke-linejoin="round" d="M84 12l470 0c40 0 73 33 73 72l0 569c0 40-33 72-73 72l-151 0m-311 0l-8 0c-39 0-72-32-72-72l0-569c0-39 33-72 72-72"/><line stroke-width="24" x1="130" y1="183" x2="502" y2="183"/><line stroke-width="24" x1="130" y1="314" x2="400" y2="314"/><path fill="none" stroke-width="24" stroke-linecap="round" stroke-linejoin="round" d="M248 446c1 1 3 1 4 2 5-7 13-11 22-11 15 0 27 13 27 28 0 7-2 13-6 18 0 1 1 2 2 3 1-1 3-1 4-1 16 0 28 13 28 28 0 13-9 24-22 27 0 2 0 4 0 6 7 5 11 13 11 22 0 16-12 28-27 28-4 0-8-1-11-2-2 1-3 2-5 3 1 3 1 5 1 7 0 16-12 28-28 28-10 0-20-6-24-15-1 0-2 0-3 0-2 0-3 0-5 0-4 9-14 16-25 16-16 0-28-12-28-28 0-3 1-6 2-9-1-1-2-1-3-2-4 2-9 3-14 3-15 0-28-12-28-27 0-11 6-20 15-25 0-1-1-2-1-3-14-2-25-13-25-28 0-15 13-27 28-27 2 0 5 0 7 0 1-1 1-2 2-4-5-5-9-12-9-20 0-16 12-28 28-28 10 0 18 5 23 13 2-1 3-1 4-2 0 0 0-1 0-2 0-15 13-27 28-27 15 0 28 12 28 27 0 1 0 2 0 2zm-29 28c30 0 54 24 54 54 0 30-24 54-54 54-30 0-54-24-54-54 0-30 24-54 54-54z"/><polyline fill="none" stroke-width="24" stroke-linecap="round" stroke-linejoin="round" points="109 633 109 868 219 797 321 868 321 621"/></svg>