<svg xmlns="http://www.w3.org/2000/svg" viewBox="0 0 34945 42992" class="svg">
   <path fill="none" stroke-width="1946" stroke-linecap="round" stroke-linejoin="round" d="M14509 26281c-3278,3055 -14333,-5990 -10838,-9916 0,0 0,0 0,0 80,-90 165,-165 254,-225m1882 7176c-1203,448 -2293,1234 -2811,1610 -3124,2266 -2355,6031 414,7822 6118,3955 16568,-3952 23079,-4992 10205,-1629 8791,8259 2804,8934m-4152 -2617c2195,0 3974,1779 3974,3973 0,2195 -1779,3973 -3974,3973 -2194,0 -3973,-1778 -3973,-3973 0,-2194 1779,-3973 3973,-3973zm-21116 -17988c3638,-7521 8462,-17093 17462,-14758m220 187l-373 1809m-6499 22561c7060,-4591 16038,-10638 12364,-19385l0 0m55 0l-1821 651"/>
</svg>
