<svg xmlns="http://www.w3.org/2000/svg" viewBox="0 0 50000 50000" class="svg">
    <path fill="none" stroke-width="1839" stroke-linecap="round" stroke-linejoin="round" class="fil0 str0" d="M15878 45338c547,1233 2741,1394 3264,-461 1174,-4169 1359,-8735 2442,-13097m3220 -3782c2338,2199 3786,13869 4447,16849 502,1819 2594,1749 3234,580 2655,-3181 9496,-17429 8695,-26267m-12571 -9519c-998,634 -2059,1241 -3769,1312 -1983,83 -4176,-1748 -6088,-2628 -1233,-568 -3501,-425 -4801,-154 -14164,2951 -2309,31035 1927,37167"/>
    <path fill="none" stroke-width="1839" stroke-linecap="round" stroke-linejoin="round" class="fil0 str1" d="M14989 24498c4570,4204 8173,1878 9815,3500"/>
    <polygon fill="none" stroke-width="1107" stroke-linecap="round" stroke-linejoin="round" points="35200,13978 34889,3732 34358,13999 26798,14200 34324,14701 34716,25784 35301,14701 42802,14200 "/>
</svg>
